<svg width="133" height="137" viewBox="0 0 133 137" fill="none" xmlns="http://www.w3.org/2000/svg">
<path d="M60.8252 93.7374C60.8252 93.7374 92.1926 82.0067 111.092 55" stroke="#910BFF" stroke-width="8"/>
<line x1="4" y1="5.83252" x2="103.822" y2="5.83252" stroke="#5035FE" stroke-width="8" stroke-linecap="round" stroke-linejoin="round"/>
<line x1="25.4521" y1="28.2539" x2="25.4521" y2="112.024" stroke="#5035FE" stroke-width="8" stroke-linecap="round" stroke-linejoin="round"/>
<path d="M38.0918 53.751H90.8097M15.0918 131.756H124.428" stroke="#5035FE" stroke-width="8" stroke-linecap="round" stroke-linejoin="round"/>
<path d="M58.6434 95.3133C58.6434 100.129 54.7392 104.033 49.9227 104.033C45.1063 104.033 41.2021 100.129 41.2021 95.3133C41.2021 90.4975 45.1063 86.5933 49.9227 86.5933C54.7392 86.5933 58.6434 90.4975 58.6434 95.3133Z" stroke="#910BFF" stroke-width="8"/>
<circle cx="118.092" cy="47" r="10" stroke="#910BFF" stroke-width="8"/>
<ellipse cx="89.5918" cy="77" rx="7.5" ry="7" fill="#910BFF"/>
<circle cx="126.592" cy="131.5" r="5.5" fill="#5035FE"/>
<circle cx="108.592" cy="6.5" r="6.5" fill="#5035FE"/>
</svg>
